<?xml version="1.0" encoding="UTF-8"?>
<!DOCTYPE svg PUBLIC "-//W3C//DTD SVG 1.1//EN" "http://www.w3.org/Graphics/SVG/1.1/DTD/svg11.dtd">
<svg version="1.1" xmlns="http://www.w3.org/2000/svg" xmlns:xlink="http://www.w3.org/1999/xlink" x="0" y="0" width="781.25" height="280" viewBox="0, 0, 781.25, 280">
  <g id="Background">
    <rect x="0" y="0" width="781.25" height="280" fill="#000000" fill-opacity="0"/>
  </g>
  <g id="Layer_1">
    <path d="M123.65,18.125 L229.069,79.05 L229.016,200.808 L216.418,208.074 L182.378,188.457 L195.025,181.163 L195.06,98.665 L123.633,57.385 L52.169,98.603 L52.133,181.101 L123.561,222.381 L137.171,214.531 L171.211,234.148 L123.544,261.641 L18.125,200.716 L18.178,78.958 L123.65,18.125 z" fill="#F42300"/>
    <path d="M176.812,191.667 L210.852,211.284 L176.928,230.851 L142.888,211.234 L176.812,191.667 z" fill="#F42300"/>
    <path d="M229.928,18.125 L335.347,79.05 L335.294,200.808 L229.822,261.641 L124.403,200.716 L124.456,78.958 L137.227,71.592 L171.266,91.209 L158.447,98.603 L158.412,181.101 L229.839,222.381 L301.303,181.163 L301.338,98.665 L229.911,57.385 L216.094,65.354 L182.054,45.737 L229.928,18.125 z" fill="#F42300"/>
    <path d="M176.488,48.947 L210.528,68.564 L176.674,88.09 L142.635,68.473 L176.488,48.947 z" fill="#F42300"/>
    <path d="M393.027,78.563 L409.097,123.938 L425.081,78.563 L442.011,78.563 L442.011,141.125 L429.077,141.125 L429.077,124.023 L430.367,94.504 L413.48,141.125 L404.628,141.125 L387.784,94.547 L389.074,124.023 L389.074,141.125 L376.183,141.125 L376.183,78.563 z" fill="#FFFFFF"/>
    <path d="M490.909,114.012 L466.159,114.012 L466.159,130.77 L495.206,130.77 L495.206,141.125 L453.269,141.125 L453.269,78.563 L495.12,78.563 L495.12,89.004 L466.159,89.004 L466.159,103.914 L490.909,103.914 z" fill="#FFFFFF"/>
    <path d="M515.659,130.77 L543.031,130.77 L543.031,141.125 L502.769,141.125 L502.769,78.563 L515.659,78.563 z" fill="#FFFFFF"/>
    <path d="M573.581,118.223 L563.312,118.223 L563.312,141.125 L550.421,141.125 L550.421,78.563 L573.667,78.563 Q584.753,78.563 590.769,83.504 Q596.784,88.445 596.784,97.469 Q596.784,103.871 594.013,108.146 Q591.241,112.422 585.613,114.957 L599.148,140.523 L599.148,141.125 L585.312,141.125 z M563.312,107.781 L573.71,107.781 Q578.566,107.781 581.23,105.311 Q583.894,102.84 583.894,98.5 Q583.894,94.074 581.38,91.539 Q578.866,89.004 573.667,89.004 L563.312,89.004 z" fill="#FFFFFF"/>
    <path d="M657.972,111.262 Q657.972,120.5 654.706,127.461 Q651.441,134.422 645.361,138.203 Q639.281,141.984 631.417,141.984 Q623.64,141.984 617.538,138.246 Q611.437,134.508 608.085,127.568 Q604.734,120.629 604.691,111.605 L604.691,108.512 Q604.691,99.273 608.021,92.248 Q611.351,85.223 617.431,81.463 Q623.511,77.703 631.331,77.703 Q639.152,77.703 645.232,81.463 Q651.312,85.223 654.642,92.248 Q657.972,99.273 657.972,108.469 z M644.909,108.426 Q644.909,98.586 641.386,93.473 Q637.863,88.359 631.331,88.359 Q624.843,88.359 621.32,93.408 Q617.796,98.457 617.753,108.211 L617.753,111.262 Q617.753,120.844 621.277,126.129 Q624.8,131.414 631.417,131.414 Q637.906,131.414 641.386,126.322 Q644.866,121.23 644.909,111.477 z" fill="#FFFFFF"/>
    <path d="M699.781,124.711 Q699.781,121.059 697.202,119.104 Q694.624,117.148 687.921,114.979 Q681.218,112.809 677.308,110.703 Q666.652,104.945 666.652,95.191 Q666.652,90.121 669.509,86.146 Q672.366,82.172 677.716,79.938 Q683.066,77.703 689.726,77.703 Q696.429,77.703 701.671,80.131 Q706.913,82.559 709.814,86.984 Q712.714,91.41 712.714,97.039 L699.823,97.039 Q699.823,92.742 697.116,90.357 Q694.409,87.973 689.511,87.973 Q684.784,87.973 682.163,89.971 Q679.542,91.969 679.542,95.234 Q679.542,98.285 682.615,100.348 Q685.687,102.41 691.659,104.215 Q702.659,107.523 707.687,112.422 Q712.714,117.32 712.714,124.625 Q712.714,132.746 706.57,137.365 Q700.425,141.984 690.027,141.984 Q682.808,141.984 676.878,139.342 Q670.948,136.699 667.833,132.102 Q664.718,127.504 664.718,121.445 L677.652,121.445 Q677.652,131.801 690.027,131.801 Q694.624,131.801 697.202,129.932 Q699.781,128.063 699.781,124.711 z" fill="#FFFFFF"/>
    <path d="M759.077,114.012 L734.327,114.012 L734.327,130.77 L763.374,130.77 L763.374,141.125 L721.437,141.125 L721.437,78.563 L763.288,78.563 L763.288,89.004 L734.327,89.004 L734.327,103.914 L759.077,103.914 z" fill="#FFFFFF"/>
    <path d="M381.829,195.883 L401.808,195.883 L401.808,200.429 L376.24,200.429 L376.24,158.27 L381.829,158.27 z" fill="#FFFFFF"/>
    <path d="M445.479,189.426 L427.816,189.426 L423.849,200.429 L418.116,200.429 L434.215,158.27 L439.08,158.27 L455.208,200.429 L449.504,200.429 z M429.496,184.851 L443.828,184.851 L436.648,165.132 z" fill="#FFFFFF"/>
    <path d="M474.383,200.429 L474.383,158.27 L488.166,158.27 Q495.028,158.27 498.488,161.108 Q501.948,163.945 501.948,169.505 Q501.948,172.458 500.269,174.731 Q498.589,177.004 495.694,178.249 Q499.111,179.205 501.094,181.883 Q503.077,184.561 503.077,188.268 Q503.077,193.943 499.4,197.186 Q495.723,200.429 489.005,200.429 z M479.942,180.71 L479.942,195.883 L489.121,195.883 Q493.001,195.883 495.245,193.87 Q497.489,191.858 497.489,188.325 Q497.489,180.71 489.208,180.71 z M479.942,176.251 L488.339,176.251 Q491.988,176.251 494.174,174.427 Q496.36,172.603 496.36,169.476 Q496.36,166.001 494.333,164.423 Q492.306,162.845 488.166,162.845 L479.942,162.845 z" fill="#FFFFFF"/>
    <path d="M535.722,181.637 Q528.571,179.581 525.313,176.584 Q522.056,173.587 522.056,169.186 Q522.056,164.206 526.037,160.948 Q530.018,157.691 536.388,157.691 Q540.732,157.691 544.134,159.37 Q547.536,161.05 549.404,164.003 Q551.271,166.957 551.271,170.46 L545.683,170.46 Q545.683,166.638 543.251,164.452 Q540.819,162.266 536.388,162.266 Q532.277,162.266 529.975,164.076 Q527.673,165.885 527.673,169.099 Q527.673,171.676 529.859,173.457 Q532.045,175.238 537.301,176.714 Q542.556,178.191 545.524,179.972 Q548.492,181.753 549.925,184.127 Q551.358,186.501 551.358,189.715 Q551.358,194.84 547.362,197.924 Q543.367,201.008 536.678,201.008 Q532.335,201.008 528.571,199.343 Q524.806,197.678 522.765,194.782 Q520.724,191.887 520.724,188.21 L526.312,188.21 Q526.312,192.032 529.135,194.247 Q531.958,196.462 536.678,196.462 Q541.079,196.462 543.424,194.667 Q545.77,192.871 545.77,189.773 Q545.77,186.675 543.598,184.981 Q541.427,183.287 535.722,181.637 z" fill="#FFFFFF"/>
  </g>
</svg>
